<svg version="1" xmlns="http://www.w3.org/2000/svg" width="313.333" height="166.667" viewBox="0 0 235.000000 125.000000"><path d="M76.5 1.4c-12.9 3.3-24 12.4-29.8 24.3-2.4 5-3.8 6.8-5.3 6.9-9.4.5-20.5 5.6-27.7 12.7-18.2 18.2-18.1 46.8.4 64.6 22 21.2 58 14.6 71.2-13l3.2-6.7 5.6-.6c5.2-.6 15.1-4.6 19.3-7.8 1.8-1.4 1.7-1.6-1.6-4.9-17-17.1-17.3-45.5-.6-62.8 3.8-4 3.9-4.3 2.2-5.6-2.4-1.7-9-5.1-12.8-6.5C95.9.3 82-.1 76.5 1.4zM58.6 34.6c6.5 1.8 16.4 8.3 20.8 13.7 7.5 9.3 11.2 20.9 10.3 32.6-.3 4-1 7.8-1.5 8.3-2.3 2.3-11.8.6-20.8-3.7-11.9-5.7-20.8-17-23.9-30.4-1.4-5.6-1.4-15.7 0-20.4.7-2.6.9-2.7 5.4-2.2 2.5.4 6.9 1.3 9.7 2.1zM132.3 1.6C126.9 3 121 5.7 117.6 8.5c-1.9 1.5-1.9 1.6 1.5 5.3 5.3 5.5 7.7 9.3 10.2 16.4 5.8 15.8 1.6 35-10.3 46.5-4 3.9-3.5 4.9 4.3 8.6 6.8 3.3 12.1 4.7 18 4.7 3.7 0 4.9.4 5.3 1.8 2.2 7.2 6.6 14.3 11.9 19.7 9.7 9.6 20.5 13.8 34.5 13.1 13.9-.6 28.3-9.4 35.4-21.6 13.5-23 4.8-52.1-19.1-63.6-7.6-3.7-20.2-6.1-20.9-4-.2.6-.2 4-.1 7.6 1 22.3-14.2 41.8-35.8 46.2-3.1.6-5.8.8-6.1.5-.4-.3-.9-3.5-1.1-7-1.4-17.6 8.3-34.5 24.9-43.2 3.7-2 7-3.5 7.3-3.5.3.1 2.6-.2 5.1-.6 4.3-.6 4.5-.8 3.9-3.2-3.1-12.6-14.9-24.8-28.5-29.8-6.1-2.1-19.2-2.6-25.7-.8z"/></svg>